<?xml version="1.0" encoding="utf-8"?>
<svg xmlns="http://www.w3.org/2000/svg" viewBox="160.461 315.081 93.088 93.088" width="93.088px" height="93.088px"><g id="object-0" transform="matrix(1, 0, 0, 1, 1.4210854715202004e-14, 2.842170943040401e-14)"><ellipse style="stroke: rgb(0, 0, 0); stroke-width: 2px; fill: rgb(88, 151, 238);" cx="207.005" cy="361.625" rx="46.544" ry="46.544"/><path style="stroke: rgb(0, 0, 0); stroke-width: 1.5px; fill: rgb(243, 243, 243); stroke-linejoin: round; stroke-linecap: round;" d="M 162.299 372.261 C 162.299 372.261 183.848 367.698 185.109 360.291 C 187.532 356.825 182.713 345.083 190.813 339.851 C 192.934 337.822 202.689 337.55 210.089 339.519 C 222.467 342.812 225.727 365.645 213.393 369.798 C 213.265 372.87 208.306 372.104 206.46 370.776 C 203.833 369.879 200.481 369.272 196.993 373.601 C 194.4 381.391 179.369 398.214 179.174 397.693 C 175.532 400.168 159.092 374.363 162.299 372.261 Z"/><ellipse style="fill: rgb(225, 185, 47); transform-box: fill-box; transform-origin: 50% 50%;" cx="209.932" cy="322.445" rx="7.834" ry="10.277" transform="matrix(0.845899, 0.533343, -0.533343, 0.845899, 5.616914, 37.343124)"/><path style="stroke: rgb(0, 0, 0); fill: rgb(225, 185, 47); stroke-width: 1.5px; stroke-linecap: round;" d="M 219.809 349.824 C 219.809 349.824 230.04 358.676 239.378 357.217 C 248.716 355.758 248.839 372.618 248.741 372.618 C 248.643 372.618 245.344 366.727 241.064 367.408 C 236.784 368.089 224.525 374.353 216.548 371.24 C 208.571 368.127 207.428 365.518 207.428 365.518"/><path style="stroke: rgb(0, 0, 0); fill: none; stroke-width: 1.5px; stroke-linecap: round;" d="M 248.511 372.195 L 248.022 371.135 C 248.022 371.135 248.022 366.158 242.719 363.792 C 237.416 361.426 223.628 367.789 220.283 363.628"/><ellipse style="stroke: rgb(0, 0, 0);" cx="208.816" cy="348.403" rx="1.305" ry="2.652"/><path style="stroke: rgb(0, 0, 0); fill: rgb(255, 213, 0);" d="M 230.098 328.699 C 230.787 328.968 226.116 337.094 225.895 335.979 C 225.941 334.971 230.893 342.962 230.143 343.337 C 229.522 342.993 234.24 334.927 234.298 336.14 C 234.275 337.007 229.442 328.862 230.098 328.699 Z"/><path style="stroke: rgb(0, 0, 0); fill: rgb(255, 213, 0);" d="M 174.831 338.546 C 175.52 338.815 170.849 346.941 170.628 345.826 C 170.674 344.818 175.626 352.809 174.876 353.184 C 174.255 352.84 178.973 344.774 179.031 345.987 C 179.008 346.854 174.175 338.709 174.831 338.546 Z"/><path style="stroke: rgb(0, 0, 0); fill: rgb(255, 213, 0);" d="M 213.64 382.205 C 214.329 382.474 209.658 390.6 209.437 389.485 C 209.483 388.477 214.435 396.468 213.685 396.843 C 213.064 396.499 217.782 388.433 217.84 389.646 C 217.817 390.513 212.984 382.368 213.64 382.205 Z"/><ellipse style="fill: rgb(255, 255, 255);" cx="209.128" cy="347.16" rx="0.455" ry="0.473"/></g></svg>